<?xml version="1.0" encoding="UTF-8"?> <svg xmlns="http://www.w3.org/2000/svg" xmlns:xlink="http://www.w3.org/1999/xlink" id="Layer_1" data-name="Layer 1" viewBox="0 0 191 61"><defs><clipPath id="clip-path"><path d="M44.62,20.25c0,1.05,0,2.1,0,3.14,0,.09,0,.18,0,.29h2.64c0-1.31,0-2.57,0-3.83a1.24,1.24,0,0,0-1.21-1.05H46A1.35,1.35,0,0,0,44.62,20.25Zm-32.19-.06c0,1,0,2.09,0,3.14,0,.09,0,.19,0,.29h2.61a.63.63,0,0,0,0-.12c0-1.21,0-2.42,0-3.62a1.28,1.28,0,0,0-1.23-1.14H13.8A1.36,1.36,0,0,0,12.43,20.19Zm17-9.19a1.74,1.74,0,0,0-1.33,1.74c0,1.45,0,2.91,0,4.37a2.28,2.28,0,0,0,0,.26h3.4a1,1,0,0,0,0-.12c0-1.54,0-3.07,0-4.61A1.7,1.7,0,0,0,29.82,11,2.58,2.58,0,0,0,29.43,11Zm.63,40.24V42.77a50.29,50.29,0,0,1,7.5.44q.4,4.09.82,8.29Zm-8-8.08a72.42,72.42,0,0,1,7.47-.43v8.51l-8.3.26C21.55,48.71,21.82,46,22.1,43.16Zm15.81-.49c-.42-2.29-.85-4.6-1.28-7a45.93,45.93,0,0,1,6.63,1.38A45.28,45.28,0,0,1,45.62,44ZM16.39,37.09A45.52,45.52,0,0,1,23,35.71q-.66,3.54-1.29,7L14,44A45.87,45.87,0,0,1,16.39,37.09Zm13.68,5.14v-7a55.26,55.26,0,0,1,6.1.4c.44,2.35.87,4.66,1.31,7Zm-6.43-6.66,5.94-.38v7l-7.31.4A45.51,45.51,0,0,1,23.64,35.57Zm-12.58,1A29.55,29.55,0,0,1,14,32.61a1,1,0,0,1,.45-.33c1.57-.56,3.16-1.09,4.74-1.63a1.8,1.8,0,0,1,.32,0,32.55,32.55,0,0,0-3.41,6L9.54,39.08C10.05,38.22,10.54,37.37,11.06,36.53Zm39,2.54-6.55-2.48a32.17,32.17,0,0,0-3.38-6l0-.07c.72.22,1.45.41,2.16.66.94.32,1.88.68,2.81,1a1.3,1.3,0,0,1,.44.29A33.16,33.16,0,0,1,50,39a.26.26,0,0,1,0,.07Zm-33.31-2.8A31,31,0,0,1,20,30.7a.92.92,0,0,1,.62-.41l4.12-.73h.15c-.59,1.88-1.18,3.73-1.77,5.6l-6.44,1.3A1.2,1.2,0,0,1,16.76,36.27ZM36.5,35.16c-.59-1.87-1.18-3.72-1.77-5.61.33,0,.7.07,1.05.13,1.14.21,2.27.43,3.41.66a.61.61,0,0,1,.34.21A29.82,29.82,0,0,1,43,36.37a.3.3,0,0,0,0,.09Zm-6.44-.42V29.22l4.08.23A36.25,36.25,0,0,1,36,35.11Zm-4.54-5.29,4.06-.24v5.53l-5.9.37A35.2,35.2,0,0,1,25.52,29.45Zm-18,6a30.65,30.65,0,0,1,14.67-9.59l.05.06L22,26a23.51,23.51,0,0,0-7.42,5.34,4.37,4.37,0,0,1-1.39,1,34.21,34.21,0,0,0-5.33,3l-.28.16Zm44.28-.12A37.31,37.31,0,0,0,46,32.14a1.39,1.39,0,0,1-.49-.34,24.36,24.36,0,0,0-8.11-5.88.25.25,0,0,1-.13-.12,30.28,30.28,0,0,1,14.84,9.58l0,.09ZM15.1,31.43a22.17,22.17,0,0,1,10.16-6.09l0,.08-.14.09a16.26,16.26,0,0,0-5,4.26.94.94,0,0,1-.38.28l-4.49,1.42-.14,0Zm29.13,0c-1.44-.45-2.88-.9-4.32-1.37a1.16,1.16,0,0,1-.51-.37A16.82,16.82,0,0,0,35,25.79l-.78-.43,0-.07a22.09,22.09,0,0,1,10.32,6.13l0,.09ZM27.78,25.07a12.71,12.71,0,0,0-2.58,4l-4.46.74C22.69,27.52,24.84,25.71,27.78,25.07ZM34.42,29a12.23,12.23,0,0,0-2.59-4,2.09,2.09,0,0,1,.43,0,10.59,10.59,0,0,1,3.68,1.83,16.28,16.28,0,0,1,2.74,2.57c.07.08.12.16.21.27Zm-4.36-.25V25a1.57,1.57,0,0,1,1.37.34,8.86,8.86,0,0,1,2,2.66c.17.3.31.61.49,1Zm-4-.42a9.66,9.66,0,0,1,2.07-2.87A1.51,1.51,0,0,1,29.59,25v3.73L25.73,29C25.85,28.74,25.94,28.54,26,28.35ZM43.34,13.58V11.36h1.83v2.23h1.55V11.37h1.82v2.22h1.55V11.37h1.82v4.24l-1.12,1.07V31.27a36.56,36.56,0,0,0-9.69-4.91V16.65l-1.12-1V11.37h1.79v2.21Zm-32.2,0V11.36H13v2.23h1.58V11.36h1.82v2.23h1.55V11.37h1.8v4.2l-1.1,1.16v9.61a35.85,35.85,0,0,0-9.68,4.89V16.64L7.78,15.59V11.38H9.59v2.21ZM23.27,8.08l-1.5-1.45V.92H24.3v3h1.95V.93h2.56V3.88h1.94V.93h2.56V3.88h1.94V.93H37.8V6.58L36.32,8.2V25.08a28.08,28.08,0,0,0-13,0ZM34.81.44v3h-1v-3H30.3v3h-1v-3H25.8v3h-1v-3H21.29c0,1,0,2,0,3V6.86L22.79,8.3a.25.25,0,0,1,0,.07c-.82.81-1.62,1.63-2.45,2.43a.52.52,0,0,1-.37.13H17.46v2.21h-.69V11H14.1v2.18h-.69V11H10.72v2.19H10V11H7.37v4.87l1.08,1v5.91C5.72,25.46,3,28.22.22,30.94l4.44,4.44a34.71,34.71,0,0,1,11.8-7.76A33.48,33.48,0,0,0,5.91,36.7l.18.2.13.1a34,34,0,0,1,6.87-4.08,37.37,37.37,0,0,0-4.28,6.66,1.27,1.27,0,0,0,.14.17l.17.14a41.76,41.76,0,0,1,6.65-2.62c-.43,1.2-.86,2.33-1.24,3.48s-.7,2.34-1.06,3.52l.35.34a62.27,62.27,0,0,1,7.82-1.4q-.42,4.24-.82,8.38l.35.36,8.41-.27v8.66l.24.22.24-.22V51.68l8.39.27.36-.33c-.27-2.79-.54-5.58-.82-8.42a62.81,62.81,0,0,1,7.82,1.41l.18-.17.21-.23q-1.14-3.43-2.28-6.93a41.58,41.58,0,0,1,6.57,2.6l.36-.26a38.64,38.64,0,0,0-4.33-6.73A34.84,34.84,0,0,1,53.44,37c.11-.12.19-.21.32-.33-.79-.9-1.53-1.81-2.33-2.65a34.25,34.25,0,0,0-2.54-2.43,34.61,34.61,0,0,0-2.8-2.15c-1-.66-2-1.23-2.93-1.84A34.72,34.72,0,0,1,55,35.38l4.47-4.46-8.2-8.18V16.91l1.07-1.15V11H49.66v2.18H49V11H46.28v2.19h-.69V11H42.92v2.18h-.71v-2.2H39.55l-2.7-2.69,1.42-1.49V1.4c0-.32,0-.64,0-1Z" style="fill:none;clip-rule:evenodd"></path></clipPath><clipPath id="clip-path-2"><rect x="-800.7" y="-515.39" width="1373.01" height="976.36" style="fill:none"></rect></clipPath><clipPath id="clip-path-3"><path d="M75.93,43.07V37.62h1.86A2.35,2.35,0,0,1,79.2,38a1.32,1.32,0,0,1,.48,1.11,1.22,1.22,0,0,1-.2.67,1.34,1.34,0,0,1-.6.46,1.2,1.2,0,0,1,.69.45,1.33,1.33,0,0,1,.24.8,1.49,1.49,0,0,1-.49,1.18,2.17,2.17,0,0,1-1.41.41Zm.94-3.16h.93a1.05,1.05,0,0,0,.69-.2.69.69,0,0,0,.25-.56.72.72,0,0,0-.23-.59,1.2,1.2,0,0,0-.72-.17h-.92Zm0,.7v1.7h1a1,1,0,0,0,.7-.22.8.8,0,0,0,.25-.61.78.78,0,0,0-.87-.87ZM84.2,41.8H82.09l-.44,1.27h-1l2-5.45h.85l2.06,5.45h-1ZM82.36,41h1.57l-.78-2.26Zm4.43,2V37.62h1.86a2.33,2.33,0,0,1,1.41.37,1.32,1.32,0,0,1,.48,1.11,1.22,1.22,0,0,1-.2.67,1.31,1.31,0,0,1-.59.46,1.21,1.21,0,0,1,.68.45,1.33,1.33,0,0,1,.24.8,1.46,1.46,0,0,1-.49,1.18,2.17,2.17,0,0,1-1.41.41Zm.94-3.16h.93a1,1,0,0,0,.69-.2.66.66,0,0,0,.25-.56.72.72,0,0,0-.23-.59,1.16,1.16,0,0,0-.72-.17h-.92Zm0,.7v1.7h1a1,1,0,0,0,.7-.22.76.76,0,0,0,.25-.61.78.78,0,0,0-.87-.87Zm7.55,0H93.05v1.67h2.61v.76H92.1V37.62h3.53v.77H93.05v1.5h2.23Zm4.49,1a.66.66,0,0,0-.26-.55,2.87,2.87,0,0,0-.91-.39,4.32,4.32,0,0,1-1-.44,1.4,1.4,0,0,1-.75-1.22A1.34,1.34,0,0,1,97.35,38a2.19,2.19,0,0,1,1.39-.42,2.31,2.31,0,0,1,1,.21,1.69,1.69,0,0,1,.7.59,1.55,1.55,0,0,1,.26.86h-.94a.86.86,0,0,0-.27-.67,1.11,1.11,0,0,0-.77-.24,1.2,1.2,0,0,0-.72.2.66.66,0,0,0-.25.55.58.58,0,0,0,.28.5,2.74,2.74,0,0,0,.91.39,4.53,4.53,0,0,1,1,.43,1.66,1.66,0,0,1,.56.56,1.41,1.41,0,0,1,.18.73,1.29,1.29,0,0,1-.52,1.08,2.25,2.25,0,0,1-1.41.4,2.59,2.59,0,0,1-1.09-.22,1.73,1.73,0,0,1-.77-.6,1.54,1.54,0,0,1-.27-.9h.94a.87.87,0,0,0,.31.72,1.32,1.32,0,0,0,.88.25,1.14,1.14,0,0,0,.74-.2A.66.66,0,0,0,99.77,41.66ZM98.57,45l-.47-.29a1.76,1.76,0,0,0,.28-.89v-.37h.75v.29a1.82,1.82,0,0,1-.16.7A1.46,1.46,0,0,1,98.57,45Zm3.24-3.89h2v-.73h-2Zm3.4,2V37.62h1.86a2.35,2.35,0,0,1,1.41.37A1.32,1.32,0,0,1,109,39.1a1.22,1.22,0,0,1-.2.67,1.31,1.31,0,0,1-.59.46,1.21,1.21,0,0,1,.68.45,1.33,1.33,0,0,1,.24.8,1.46,1.46,0,0,1-.49,1.18,2.17,2.17,0,0,1-1.41.41Zm.94-3.16h.93a1.05,1.05,0,0,0,.69-.2.69.69,0,0,0,.25-.56.72.72,0,0,0-.23-.59,1.18,1.18,0,0,0-.72-.17h-.92Zm0,.7v1.7h1a1,1,0,0,0,.7-.22.8.8,0,0,0,.25-.61.78.78,0,0,0-.87-.87Zm8.65-.12a3.4,3.4,0,0,1-.27,1.4,2.19,2.19,0,0,1-.79.93,2.35,2.35,0,0,1-2.37,0,2.15,2.15,0,0,1-.79-.92,3.18,3.18,0,0,1-.29-1.38v-.31a3.32,3.32,0,0,1,.28-1.41,2.15,2.15,0,0,1,.8-.93,2.19,2.19,0,0,1,1.18-.32,2.16,2.16,0,0,1,1.18.32,2.11,2.11,0,0,1,.79.92,3.19,3.19,0,0,1,.28,1.39Zm-.94-.29a2.42,2.42,0,0,0-.34-1.38,1.2,1.2,0,0,0-1.93,0,2.39,2.39,0,0,0-.36,1.36v.32a2.36,2.36,0,0,0,.35,1.38,1.21,1.21,0,0,0,1.94,0,2.34,2.34,0,0,0,.34-1.39Zm3.33,2.11h2.47v.76h-3.42V37.62h1Zm4.73-2.11,1.25-2.58h1l-1.82,3.44v2h-1v-2l-1.83-3.44h1Zm5.77,1.6h-2.1l-.44,1.27h-1l2.06-5.45h.85l2.06,5.45h-1ZM125.85,41h1.58l-.79-2.26Zm4.46,2h.94V37.62h-.94Zm9.22-5.45v3.64a1.75,1.75,0,0,1-.56,1.37,2.1,2.1,0,0,1-1.48.51,2.14,2.14,0,0,1-1.48-.5,1.75,1.75,0,0,1-.55-1.38V37.62h.94v3.64a1.18,1.18,0,0,0,.28.84,1.08,1.08,0,0,0,.81.29c.73,0,1.1-.39,1.1-1.16V37.62Zm5.88,5.45h-.95L142,39.2v3.87h-.95V37.62H142l2.43,3.88V37.62h.94Zm1.65,0H148V37.62h-.94Zm4.53-1.19L153,37.62h1l-2,5.45h-.91l-1.95-5.45h1Zm6.76-1.24h-2.24v1.67h2.62v.76h-3.56V37.62h3.53v.77h-2.59v1.5h2.24ZM162,41h-1.06v2.1H160V37.62h1.91a2.16,2.16,0,0,1,1.45.43,1.68,1.68,0,0,1,.25,2.13,1.61,1.61,0,0,1-.73.57L164.08,43v0h-1Zm-1.06-.76h1a1.09,1.09,0,0,0,.75-.24.84.84,0,0,0,.27-.66.89.89,0,0,0-.25-.68,1,1,0,0,0-.74-.24h-1ZM168,41.66a.66.66,0,0,0-.25-.55,3,3,0,0,0-.91-.39,4.32,4.32,0,0,1-1-.44,1.4,1.4,0,0,1-.75-1.22,1.34,1.34,0,0,1,.54-1.09,2.19,2.19,0,0,1,1.39-.42,2.31,2.31,0,0,1,1,.21,1.69,1.69,0,0,1,.7.59,1.55,1.55,0,0,1,.26.86h-1a.85.85,0,0,0-.26-.67,1.13,1.13,0,0,0-.77-.24,1.16,1.16,0,0,0-.72.2.66.66,0,0,0-.25.55.6.6,0,0,0,.27.5,2.92,2.92,0,0,0,.92.39,4.53,4.53,0,0,1,1,.43,1.66,1.66,0,0,1,.56.56,1.41,1.41,0,0,1,.18.73,1.29,1.29,0,0,1-.52,1.08,2.26,2.26,0,0,1-1.42.4,2.58,2.58,0,0,1-1.08-.22,1.73,1.73,0,0,1-.77-.6,1.55,1.55,0,0,1-.28-.9h1a.87.87,0,0,0,.31.72,1.31,1.31,0,0,0,.87.25,1.16,1.16,0,0,0,.75-.2A.65.65,0,0,0,168,41.66Zm2.36,1.41h.94V37.62h-.94Zm6.49-4.68h-1.7v4.68h-.94V38.39h-1.68v-.77h4.32Zm3.26,1.81,1.25-2.58h1l-1.82,3.44v2h-.95v-2l-1.83-3.44h1.05Z" style="fill:none;clip-rule:evenodd"></path></clipPath><clipPath id="clip-path-5"><rect x="67.24" y="16.91" width="0.77" height="26.04" style="fill:none"></rect></clipPath><clipPath id="clip-path-6"><path d="M79.18,25.65v4.59H75.93V16.72h5.39a6.3,6.3,0,0,1,2.74.57,4.36,4.36,0,0,1,1.85,1.62,4.51,4.51,0,0,1,.65,2.39,3.93,3.93,0,0,1-1.41,3.17,5.94,5.94,0,0,1-3.89,1.18Zm0-2.52h2.14a2,2,0,0,0,1.44-.47,1.77,1.77,0,0,0,.5-1.34,2.17,2.17,0,0,0-.51-1.51,1.83,1.83,0,0,0-1.4-.58H79.18Zm14.81,6a3.22,3.22,0,0,1-2.68,1.27,3.15,3.15,0,0,1-2.5-1A4,4,0,0,1,88,26.7V20.19h3.13v6.53c0,.86.41,1.29,1.25,1.29a1.63,1.63,0,0,0,1.53-.77v-7H97v10H94.08Zm14.25-3.85a6,6,0,0,1-1,3.79,3.39,3.39,0,0,1-2.87,1.33,3,3,0,0,1-2.47-1.21l-.13,1h-2.8V16h3.12v5a2.87,2.87,0,0,1,2.26-1,3.4,3.4,0,0,1,2.89,1.35,6.1,6.1,0,0,1,1,3.79ZM105,26.93a7.59,7.59,0,0,0,.15-1.83,4.08,4.08,0,0,0-.39-2.07,1.28,1.28,0,0,0-1.18-.61,1.52,1.52,0,0,0-1.47.8v4a1.52,1.52,0,0,0,1.49.8A1.33,1.33,0,0,0,105,26.93Zm4.93,3.31H113V16h-3.14Zm5-12.64a1.39,1.39,0,0,1,.49-1.1,2.07,2.07,0,0,1,2.5,0,1.41,1.41,0,0,1,.48,1.1,1.39,1.39,0,0,1-.48,1.09,2,2,0,0,1-2.5,0A1.37,1.37,0,0,1,114.91,17.6Zm.19,12.64h3.14v-10H115.1ZM124.41,28a1.38,1.38,0,0,0,1-.36,1.3,1.3,0,0,0,.35-1h2.93a3.46,3.46,0,0,1-1.18,2.71,4.39,4.39,0,0,1-3,1.06A4.47,4.47,0,0,1,121,29.05a5.44,5.44,0,0,1-1.26-3.81v-.13a6.08,6.08,0,0,1,.56-2.69A4.08,4.08,0,0,1,122,20.63a4.79,4.79,0,0,1,2.5-.63,4.36,4.36,0,0,1,3.11,1.09A3.84,3.84,0,0,1,128.71,24h-2.93a1.7,1.7,0,0,0-.38-1.19,1.3,1.3,0,0,0-1-.42c-.81,0-1.29.51-1.42,1.55a9.61,9.61,0,0,0-.07,1.35,4.19,4.19,0,0,0,.37,2.1A1.25,1.25,0,0,0,124.41,28ZM147,30.24h-3.24V24.59h-4.8v5.65h-3.26V16.72h3.26v5.36h4.8V16.72H147Zm6.9.18A5.15,5.15,0,0,1,150.13,29a4.77,4.77,0,0,1-1.43-3.59v-.26a6.21,6.21,0,0,1,.57-2.72,4.21,4.21,0,0,1,1.67-1.82,5,5,0,0,1,2.6-.65,4.34,4.34,0,0,1,3.34,1.32A5.17,5.17,0,0,1,158.1,25V26.2h-6.22a2.34,2.34,0,0,0,.74,1.33,2.16,2.16,0,0,0,1.46.48,2.81,2.81,0,0,0,2.32-1l1.43,1.69a3.91,3.91,0,0,1-1.65,1.28A5.62,5.62,0,0,1,153.87,30.42Zm-.35-8c-.92,0-1.46.6-1.64,1.82H155V24a1.56,1.56,0,0,0-.38-1.17A1.54,1.54,0,0,0,153.52,22.42Zm11.62,7.82a3.9,3.9,0,0,1-.3-.9,2.91,2.91,0,0,1-2.41,1.08,3.51,3.51,0,0,1-2.41-.86,2.73,2.73,0,0,1-1-2.16,2.83,2.83,0,0,1,1.2-2.47,6.21,6.21,0,0,1,3.51-.83h1v-.53c0-.93-.39-1.39-1.19-1.39a1,1,0,0,0-1.12,1.1h-3.12a2.83,2.83,0,0,1,1.23-2.37,5.25,5.25,0,0,1,3.16-.91,4.59,4.59,0,0,1,3,.94,3.27,3.27,0,0,1,1.14,2.57V28a4.57,4.57,0,0,0,.43,2.12v.16Zm-2-2a1.71,1.71,0,0,0,1-.25,1.47,1.47,0,0,0,.55-.56V25.77h-.9c-1.09,0-1.64.49-1.64,1.47a.91.91,0,0,0,.29.69A1,1,0,0,0,163.18,28.19Zm6.64,2H173V16h-3.14Zm8.78-12.55v2.5h1.65v2.17H178.6V27a1.16,1.16,0,0,0,.2.79,1.11,1.11,0,0,0,.81.22,5.56,5.56,0,0,0,.78,0v2.23a5.8,5.8,0,0,1-1.77.27,3.26,3.26,0,0,1-2.38-.76,3.14,3.14,0,0,1-.77-2.31v-5h-1.28V20.19h1.28v-2.5Zm6.24,3.58a3.42,3.42,0,0,1,5.07-.28,4.46,4.46,0,0,1,.87,2.9v6.35h-3.14V24a1.77,1.77,0,0,0-.33-1.18,1.38,1.38,0,0,0-1.1-.37,1.52,1.52,0,0,0-1.37.61v7.21h-3.12V16h3.12Z" style="fill:none;clip-rule:evenodd"></path></clipPath></defs><title>public_health_logo_svg</title><g style="clip-path:url(#clip-path)"><g style="clip-path:url(#clip-path-2)"><rect x="-4.54" y="-4.33" width="68.76" height="69.65" style="fill:#43a06a"></rect></g></g><g style="clip-path:url(#clip-path-3)"><g style="clip-path:url(#clip-path-2)"><rect x="71.16" y="32.78" width="116.06" height="16.99"></rect></g></g><g style="clip-path:url(#clip-path-5)"><rect x="62.47" y="12.14" width="10.3" height="35.57"></rect></g><g style="clip-path:url(#clip-path-6)"><g style="clip-path:url(#clip-path-2)"><rect x="71.16" y="11.21" width="124.38" height="23.98"></rect></g></g></svg> 